<svg width="137" height="59" viewBox="0 0 137 59" fill="none" xmlns="http://www.w3.org/2000/svg">
<path d="M11.1631 41.8324L14.9057 35.5065L21.2202 39.2771L23.3959 35.5951L13.4102 29.6306L7.49044 39.6411L11.1631 41.8324Z" fill="#EBFC56"/>
<path d="M5.9508 42.2391L3.77393 45.9203L7.44575 48.1129L9.62262 44.4317L5.9508 42.2391Z" fill="#EBFC56"/>
<path d="M12.2216 45.98L18.5335 49.749L22.2771 43.4185L25.9493 45.6078L25.9478 45.6103L20.0285 55.6229L10.0439 49.6625L10.0387 49.6594L12.2216 45.98Z" fill="#EBFC56"/>
<path d="M25.9862 37.1425L23.8093 40.8236L27.4811 43.0162L29.658 39.335L25.9862 37.1425Z" fill="#EBFC56"/>
<path d="M19.6842 41.87L15.9592 39.6439L14.3263 42.4051L14.1371 42.7222L13.7505 43.3758L13.748 43.383L13.7532 43.3861L17.4772 45.6081L19.6848 41.872L19.6868 41.8715L19.6842 41.87Z" fill="#EBFC56"/>
<path d="M32.5159 31.4757L38.8778 29.8565C40.4561 29.4548 41.7534 29.5575 42.7704 30.1665C43.5564 30.6376 44.0683 31.3402 44.305 32.2702L44.3149 32.3092C44.4153 32.7034 44.4545 33.0629 44.4352 33.3892C44.4139 33.7159 44.3546 34.0218 44.2527 34.3057C44.1529 34.589 44.0192 34.8504 43.8515 35.0898C43.6839 35.3292 43.4926 35.5441 43.2807 35.7379C44.1507 35.8378 44.8808 36.0892 45.4689 36.4926C46.057 36.896 46.4668 37.5568 46.7004 38.4746L46.7103 38.5136C46.8707 39.1439 46.8901 39.7248 46.7696 40.2605C46.6486 40.7941 46.4034 41.2762 46.0316 41.7053C45.6623 42.1359 45.1801 42.5079 44.5866 42.8273C43.9931 43.1466 43.3117 43.4031 42.5431 43.5988L36.0237 45.258L32.5159 31.4757ZM39.6582 35.5909C40.3246 35.4213 40.8249 35.1715 41.1588 34.8417C41.4928 34.5119 41.5945 34.0903 41.4644 33.5791L41.4545 33.5401C41.3374 33.0802 41.0784 32.7723 40.6774 32.6164C40.2763 32.4605 39.7544 32.4622 39.1145 32.6251L36.1318 33.3842L36.8733 36.2975C36.8738 36.2996 39.6582 35.5909 39.6582 35.5909ZM41.8771 40.9395C42.5436 40.7699 43.0361 40.5155 43.3526 40.177C43.6692 39.8385 43.7631 39.4123 43.6325 38.8991L43.6226 38.86C43.5055 38.4002 43.2372 38.0815 42.8151 37.9026C42.393 37.7236 41.7907 37.7348 41.0057 37.9346L37.516 38.8228L38.2878 41.8552L41.8771 40.9395Z" fill="#EBFC56"/>
<path d="M47.9443 27.5447L50.9638 26.7762L54.4721 40.5606L51.4527 41.3291L47.9443 27.5447Z" fill="#EBFC56"/>
<path d="M55.5442 25.6124L58.3286 24.9038L66.9202 31.7543L64.7601 23.2669L67.7407 22.5082L71.249 36.2926L68.6813 36.9461L59.803 29.8757L62.0332 38.6382L59.0525 39.3968L55.5442 25.6124Z" fill="#EBFC56"/>
<path d="M76.8554 20.0833L79.6398 19.3747L89.0568 31.7601L85.9004 32.5635L83.8582 29.791L78.0543 31.2682L77.5861 34.6796L74.5073 35.4632L76.8554 20.0833ZM82.0974 27.3885L79.1363 23.3831L78.4503 28.3168L82.0974 27.3885Z" fill="#EBFC56"/>
<path d="M88.8113 17.1462L91.5957 16.4375L100.187 23.2881L98.0271 14.8006L101.008 14.042L104.516 27.8264L101.948 28.4799L93.07 21.4094L95.3002 30.172L92.3196 30.9306L88.8113 17.1462Z" fill="#EBFC56"/>
<path d="M115.44 25.2961C114.432 25.5526 113.45 25.6056 112.495 25.4597C111.539 25.3139 110.666 24.9982 109.877 24.5215C109.087 24.0448 108.405 23.4182 107.833 22.6413C107.259 21.8649 106.847 20.9837 106.597 19.9982L106.587 19.9592C106.336 18.9738 106.277 18.0072 106.412 17.0569C106.547 16.1067 106.843 15.2288 107.305 14.4183C107.767 13.6077 108.389 12.905 109.169 12.3087C109.949 11.7123 110.871 11.2788 111.93 11.0093C112.57 10.8465 113.168 10.751 113.724 10.721C114.28 10.6909 114.798 10.7144 115.275 10.7874C115.754 10.8624 116.209 10.9826 116.642 11.1523C117.075 11.3219 117.488 11.5251 117.882 11.759L116.527 14.4737C115.868 14.1234 115.225 13.8825 114.599 13.7489C113.973 13.6154 113.314 13.6365 112.621 13.8129C112.047 13.9591 111.542 14.2057 111.108 14.5544C110.674 14.9031 110.332 15.3182 110.078 15.8024C109.827 16.2861 109.667 16.8121 109.603 17.3815C109.539 17.9509 109.582 18.5302 109.732 19.1194L109.742 19.1584C109.892 19.7497 110.132 20.2832 110.462 20.7568C110.792 21.2324 111.179 21.6236 111.626 21.9273C112.072 22.2336 112.57 22.439 113.12 22.544C113.669 22.6491 114.238 22.6267 114.825 22.4774C115.61 22.2776 116.235 21.9653 116.703 21.5379C117.172 21.1126 117.611 20.5811 118.02 19.9458L120.438 21.4072C120.182 21.8791 119.902 22.313 119.601 22.7111C119.3 23.1091 118.948 23.474 118.554 23.8061C118.157 24.1366 117.707 24.4283 117.199 24.6755C116.693 24.9181 116.106 25.1265 115.44 25.2961Z" fill="#EBFC56"/>
<path d="M121.056 8.93878L131.39 6.30861L132.077 9.00636L124.723 10.8779L125.435 13.6742L131.905 12.0274L132.592 14.7252L126.122 16.372L126.859 19.2668L134.31 17.3703L134.997 20.068L124.564 22.7232L121.056 8.93878Z" fill="#EBFC56"/>
</svg>
